<?xml version="1.0" standalone="no"?>
<!DOCTYPE svg PUBLIC "-//W3C//DTD SVG 20010904//EN"
 "http://www.w3.org/TR/2001/REC-SVG-20010904/DTD/svg10.dtd">
<svg version="1.0" xmlns="http://www.w3.org/2000/svg"
 width="304.000000pt" height="288.000000pt" viewBox="0 0 304.000000 288.000000"
 preserveAspectRatio="xMidYMid meet">
<metadata>
Created by potrace 1.12, written by Peter Selinger 2001-2015
</metadata>
<g transform="translate(0.000000,288.000000) scale(0.100000,-0.100000)"
fill="#000000" stroke="none">
<path d="M1185 2524 c-16 -2 -72 -9 -123 -15 -335 -39 -568 -189 -742 -478
-153 -256 -184 -603 -79 -915 114 -341 409 -632 757 -745 246 -81 588 -79 830
3 244 83 442 250 547 461 67 134 80 194 79 365 -1 173 -20 256 -88 395 -95
192 -288 381 -544 534 l-86 51 527 0 527 0 0 175 0 175 -787 -1 c-434 -1 -801
-4 -818 -5z m487 -452 c243 -252 358 -522 358 -840 0 -255 -68 -450 -205 -588
-272 -273 -741 -217 -1014 121 -160 199 -229 431 -218 730 6 153 22 225 69
320 83 169 222 277 418 326 111 28 185 36 346 38 l141 1 105 -108z"/>
</g>
</svg>
