<?xml version="1.0" standalone="no"?>
<!DOCTYPE svg PUBLIC "-//W3C//DTD SVG 20010904//EN"
 "http://www.w3.org/TR/2001/REC-SVG-20010904/DTD/svg10.dtd">
<svg version="1.0" xmlns="http://www.w3.org/2000/svg"
 width="251.000000pt" height="286.000000pt" viewBox="0 0 251.000000 286.000000"
 preserveAspectRatio="xMidYMid meet">
<metadata>
Created by potrace 1.12, written by Peter Selinger 2001-2015
</metadata>
<g transform="translate(0.000000,286.000000) scale(0.100000,-0.100000)"
fill="#000000" stroke="none">
<path d="M1710 1965 l-505 -505 -500 500 c-275 275 -506 500 -513 500 -9 0
-12 -240 -12 -1160 0 -923 3 -1160 13 -1160 6 0 237 225 512 500 l500 500 505
-505 c278 -278 511 -505 518 -505 9 0 12 242 12 1170 0 931 -3 1170 -13 1170
-6 0 -239 -227 -517 -505z m310 -667 l0 -653 -327 327 -328 328 325 325 c179
179 326 325 327 325 2 0 3 -294 3 -652z m-1298 -320 l-322 -323 0 645 0 645
322 -323 323 -322 -323 -322z"/>
</g>
</svg>
