<?xml version="1.0" standalone="no"?>
<!DOCTYPE svg PUBLIC "-//W3C//DTD SVG 20010904//EN"
 "http://www.w3.org/TR/2001/REC-SVG-20010904/DTD/svg10.dtd">
<svg version="1.0" xmlns="http://www.w3.org/2000/svg"
 width="279.000000pt" height="285.000000pt" viewBox="0 0 279.000000 285.000000"
 preserveAspectRatio="xMidYMid meet">
<metadata>
Created by potrace 1.12, written by Peter Selinger 2001-2015
</metadata>
<g transform="translate(0.000000,285.000000) scale(0.100000,-0.100000)"
fill="#000000" stroke="none">
<path d="M732 2505 c-177 -39 -295 -147 -407 -374 -37 -73 -115 -269 -115
-286 0 -3 19 -5 43 -5 43 0 44 0 101 85 131 193 245 255 468 255 l89 0 -6 -87
c-27 -377 -59 -636 -101 -813 -54 -228 -105 -343 -234 -525 -98 -139 -119
-184 -120 -254 0 -140 124 -234 254 -191 77 25 160 140 212 292 61 181 117
613 159 1223 8 127 18 258 21 293 l6 62 304 0 305 0 -6 -32 c-5 -35 -33 -306
-62 -603 -11 -121 -17 -271 -17 -455 0 -247 2 -286 22 -380 42 -195 124 -319
250 -378 49 -23 70 -27 147 -27 82 0 96 3 159 34 159 78 258 235 301 480 30
168 32 151 -14 151 l-40 0 -16 -57 c-63 -222 -293 -296 -446 -143 -52 52 -81
119 -100 227 -15 85 -6 469 16 693 16 162 52 442 61 473 5 16 27 17 285 17
l279 0 0 170 0 170 -867 -1 c-694 0 -881 -3 -931 -14z"/>
</g>
</svg>
